REM DIRINDEX 1\2,1\3,1\4,1\5,1\6
REM DIRNAME cjc129,folder01,folder02,folder03,folder04,folder05
TITLE ""
FILE "DISC2Track10.mp3" MP3
  TRACK 01 AUDIO
    TITLE "0:"
    INDEX 01 00:00:00
  TRACK 02 AUDIO
    TITLE "3:cjc129_1214"
    INDEX 01 00:00:07
  TRACK 03 AUDIO
    TITLE "0:"
    INDEX 01 00:01:22
  TRACK 04 AUDIO
    TITLE "5:cjc129_1215"
    INDEX 01 00:01:56
  TRACK 05 AUDIO
    TITLE "0:"
    INDEX 01 00:03:39
  TRACK 06 AUDIO
    TITLE "4:cjc129_1216"
    INDEX 01 00:04:29
  TRACK 07 AUDIO
    TITLE "0:"
    INDEX 01 00:05:44
  TRACK 08 AUDIO
    TITLE "6:cjc129_1217"
    INDEX 01 00:06:02
  TRACK 09 AUDIO
    TITLE "0:"
    INDEX 01 00:10:23
  TRACK 10 AUDIO
    TITLE "3:cjc129_1218"
    INDEX 01 00:11:74
  TRACK 11 AUDIO
    TITLE "0:"
    INDEX 01 00:13:06
  TRACK 12 AUDIO
    TITLE "5:cjc129_1219"
    INDEX 01 00:14:47
  TRACK 13 AUDIO
    TITLE "0:"
    INDEX 01 00:16:26
  TRACK 14 AUDIO
    TITLE "4:cjc129_1220"
    INDEX 01 00:17:18
  TRACK 15 AUDIO
    TITLE "0:"
    INDEX 01 00:18:23
  TRACK 16 AUDIO
    TITLE "6:cjc129_1221"
    INDEX 01 00:18:54
  TRACK 17 AUDIO
    TITLE "0:"
    INDEX 01 00:23:22
  TRACK 18 AUDIO
    TITLE "3:cjc129_1222"
    INDEX 01 00:24:71
  TRACK 19 AUDIO
    TITLE "0:"
    INDEX 01 00:26:01
  TRACK 20 AUDIO
    TITLE "5:cjc129_1223"
    INDEX 01 00:27:32
  TRACK 21 AUDIO
    TITLE "0:"
    INDEX 01 00:30:57
  TRACK 22 AUDIO
    TITLE "4:cjc129_1224"
    INDEX 01 00:31:47
  TRACK 23 AUDIO
    TITLE "0:"
    INDEX 01 00:32:54
  TRACK 24 AUDIO
    TITLE "6:cjc129_1225"
    INDEX 01 00:33:11
  TRACK 25 AUDIO
    TITLE "0:"
    INDEX 01 00:37:40
  TRACK 26 AUDIO
    TITLE "3:cjc129_1226"
    INDEX 01 00:39:15
  TRACK 27 AUDIO
    TITLE "0:"
    INDEX 01 00:40:21
  TRACK 28 AUDIO
    TITLE "5:cjc129_1227"
    INDEX 01 00:41:67
  TRACK 29 AUDIO
    TITLE "0:"
    INDEX 01 00:43:35
  TRACK 30 AUDIO
    TITLE "4:cjc129_1228"
    INDEX 01 00:44:26
  TRACK 31 AUDIO
    TITLE "0:"
    INDEX 01 00:45:33
  TRACK 32 AUDIO
    TITLE "6:cjc129_1229"
    INDEX 01 00:45:63
  TRACK 33 AUDIO
    TITLE "0:"
    INDEX 01 00:49:39
  TRACK 34 AUDIO
    TITLE "3:cjc129_1230"
    INDEX 01 00:51:16
  TRACK 35 AUDIO
    TITLE "0:"
    INDEX 01 00:52:67
  TRACK 36 AUDIO
    TITLE "5:cjc129_1231"
    INDEX 01 00:53:23
  TRACK 37 AUDIO
    TITLE "0:"
    INDEX 01 00:55:18
  TRACK 38 AUDIO
    TITLE "4:cjc129_1232"
    INDEX 01 00:56:08
  TRACK 39 AUDIO
    TITLE "0:"
    INDEX 01 00:57:60
  TRACK 40 AUDIO
    TITLE "6:cjc129_1233"
    INDEX 01 00:58:18
  TRACK 41 AUDIO
    TITLE "0:"
    INDEX 01 01:02:63
  TRACK 42 AUDIO
    TITLE "3:cjc129_1234"
    INDEX 01 01:04:39
  TRACK 43 AUDIO
    TITLE "0:"
    INDEX 01 01:06:18
  TRACK 44 AUDIO
    TITLE "5:cjc129_1235"
    INDEX 01 01:06:51
  TRACK 45 AUDIO
    TITLE "0:"
    INDEX 01 01:11:19
  TRACK 46 AUDIO
    TITLE "4:cjc129_1236"
    INDEX 01 01:12:09
  TRACK 47 AUDIO
    TITLE "0:"
    INDEX 01 01:13:63
  TRACK 48 AUDIO
    TITLE "6:cjc129_1237"
    INDEX 01 01:14:19
  TRACK 49 AUDIO
    TITLE "0:"
    INDEX 01 01:19:30
  TRACK 50 AUDIO
    TITLE "3:cjc129_1238"
    INDEX 01 01:21:04
  TRACK 51 AUDIO
    TITLE "0:"
    INDEX 01 01:22:46
  TRACK 52 AUDIO
    TITLE "5:cjc129_1239"
    INDEX 01 01:23:03
  TRACK 53 AUDIO
    TITLE "0:"
    INDEX 01 01:25:49
  TRACK 54 AUDIO
    TITLE "4:cjc129_1240"
    INDEX 01 01:26:38
  TRACK 55 AUDIO
    TITLE "0:"
    INDEX 01 01:28:04
  TRACK 56 AUDIO
    TITLE "6:cjc129_1241"
    INDEX 01 01:28:37
  TRACK 57 AUDIO
    TITLE "0:"
    INDEX 01 01:32:31
  TRACK 58 AUDIO
    TITLE "3:cjc129_1242"
    INDEX 01 01:34:05
  TRACK 59 AUDIO
    TITLE "0:"
    INDEX 01 01:38:28
  TRACK 60 AUDIO
    TITLE "5:cjc129_1243"
    INDEX 01 01:38:61
  TRACK 61 AUDIO
    TITLE "0:"
    INDEX 01 01:41:36
  TRACK 62 AUDIO
    TITLE "4:cjc129_1244"
    INDEX 01 01:42:26
  TRACK 63 AUDIO
    TITLE "0:"
    INDEX 01 01:46:49
  TRACK 64 AUDIO
    TITLE "6:cjc129_1245"
    INDEX 01 01:47:05
  TRACK 65 AUDIO
    TITLE "0:"
    INDEX 01 01:52:00
